<svg width="1925" height="1024" viewBox="0 0 1925 1024" fill="none" xmlns="http://www.w3.org/2000/svg">
<g clipPath="url(#clip0_926_2240)">
<rect x="470.042" y="287.589" width="469.673" height="95.2636" rx="47.6318" transform="rotate(-180 470.042 287.589)" stroke="#D0EFFF" stroke-opacity="0.76" stroke-width="0.7199"/>
<rect x="284.976" y="192.342" width="383.214" height="95.2634" rx="47.6317" transform="rotate(90 284.976 192.342)" stroke="#D0EFFF" stroke-opacity="0.76" stroke-width="0.7199"/>
<rect x="285.636" y="0.35995" width="287.23" height="95.2634" rx="47.6317" transform="rotate(90 285.636 0.35995)" stroke="#D0EFFF" stroke-opacity="0.76" stroke-width="0.7199"/>
<rect x="470.035" y="575.56" width="469.673" height="95.2635" rx="47.6318" transform="rotate(-180 470.035 575.56)" stroke="#D0EFFF" stroke-opacity="0.76" stroke-width="0.7199"/>
<rect x="445.82" y="443.583" width="119.212" height="119.212" rx="59.606" transform="rotate(-180 445.82 443.583)" stroke="#D0EFFF" stroke-opacity="0.76" stroke-width="0.7199"/>
<rect x="148.132" y="443.574" width="119.212" height="119.212" rx="59.606" transform="rotate(-180 148.132 443.574)" stroke="#D0EFFF" stroke-opacity="0.76" stroke-width="0.7199"/>
<rect x="153.652" y="155.617" width="119.212" height="119.212" rx="59.606" transform="rotate(-180 153.652 155.617)" stroke="#D0EFFF" stroke-opacity="0.76" stroke-width="0.7199"/>
<rect x="441.609" y="155.617" width="119.212" height="119.212" rx="59.606" transform="rotate(-180 441.609 155.617)" stroke="#D0EFFF" stroke-opacity="0.76" stroke-width="0.7199"/>
<rect x="470.042" y="877.908" width="469.673" height="95.2636" rx="47.6318" transform="rotate(-180 470.042 877.908)" stroke="#D0EFFF" stroke-opacity="0.76" stroke-width="0.7199"/>
<rect x="284.976" y="782.661" width="383.214" height="95.2634" rx="47.6317" transform="rotate(90 284.976 782.661)" stroke="#D0EFFF" stroke-opacity="0.76" stroke-width="0.7199"/>
<rect x="285.636" y="590.678" width="287.23" height="95.2634" rx="47.6317" transform="rotate(90 285.636 590.678)" stroke="#D0EFFF" stroke-opacity="0.76" stroke-width="0.7199"/>
<rect x="445.82" y="1033.9" width="119.212" height="119.212" rx="59.606" transform="rotate(-180 445.82 1033.9)" stroke="#D0EFFF" stroke-opacity="0.76" stroke-width="0.7199"/>
<rect x="148.132" y="1033.89" width="119.212" height="119.212" rx="59.606" transform="rotate(-180 148.132 1033.89)" stroke="#D0EFFF" stroke-opacity="0.76" stroke-width="0.7199"/>
<rect x="153.652" y="745.935" width="119.212" height="119.212" rx="59.606" transform="rotate(-180 153.652 745.935)" stroke="#D0EFFF" stroke-opacity="0.76" stroke-width="0.7199"/>
<rect x="441.609" y="745.935" width="119.212" height="119.212" rx="59.606" transform="rotate(-180 441.609 745.935)" stroke="#D0EFFF" stroke-opacity="0.76" stroke-width="0.7199"/>
<rect x="954.843" y="287.589" width="469.673" height="95.2636" rx="47.6318" transform="rotate(-180 954.843 287.589)" stroke="#D0EFFF" stroke-opacity="0.76" stroke-width="0.7199"/>
<rect x="769.777" y="192.342" width="383.214" height="95.2634" rx="47.6317" transform="rotate(90 769.777 192.342)" stroke="#D0EFFF" stroke-opacity="0.76" stroke-width="0.7199"/>
<rect x="770.437" y="0.35995" width="287.23" height="95.2634" rx="47.6317" transform="rotate(90 770.437 0.35995)" stroke="#D0EFFF" stroke-opacity="0.76" stroke-width="0.7199"/>
<rect x="954.835" y="575.56" width="469.673" height="95.2635" rx="47.6318" transform="rotate(-180 954.835 575.56)" stroke="#D0EFFF" stroke-opacity="0.76" stroke-width="0.7199"/>
<rect x="930.621" y="443.583" width="119.212" height="119.212" rx="59.606" transform="rotate(-180 930.621 443.583)" stroke="#D0EFFF" stroke-opacity="0.76" stroke-width="0.7199"/>
<rect x="632.933" y="443.574" width="119.212" height="119.212" rx="59.606" transform="rotate(-180 632.933 443.574)" stroke="#D0EFFF" stroke-opacity="0.76" stroke-width="0.7199"/>
<rect x="638.453" y="155.617" width="119.212" height="119.212" rx="59.606" transform="rotate(-180 638.453 155.617)" stroke="#D0EFFF" stroke-opacity="0.76" stroke-width="0.7199"/>
<rect x="926.41" y="155.617" width="119.212" height="119.212" rx="59.606" transform="rotate(-180 926.41 155.617)" stroke="#D0EFFF" stroke-opacity="0.76" stroke-width="0.7199"/>
<rect x="954.843" y="877.908" width="469.673" height="95.2636" rx="47.6318" transform="rotate(-180 954.843 877.908)" stroke="#D0EFFF" stroke-opacity="0.76" stroke-width="0.7199"/>
<rect x="769.777" y="782.661" width="383.214" height="95.2634" rx="47.6317" transform="rotate(90 769.777 782.661)" stroke="#D0EFFF" stroke-opacity="0.76" stroke-width="0.7199"/>
<rect x="770.437" y="590.678" width="287.23" height="95.2634" rx="47.6317" transform="rotate(90 770.437 590.678)" stroke="#D0EFFF" stroke-opacity="0.76" stroke-width="0.7199"/>
<rect x="930.621" y="1033.9" width="119.212" height="119.212" rx="59.606" transform="rotate(-180 930.621 1033.9)" stroke="#D0EFFF" stroke-opacity="0.76" stroke-width="0.7199"/>
<rect x="632.933" y="1033.89" width="119.212" height="119.212" rx="59.606" transform="rotate(-180 632.933 1033.89)" stroke="#D0EFFF" stroke-opacity="0.76" stroke-width="0.7199"/>
<rect x="638.453" y="745.935" width="119.212" height="119.212" rx="59.606" transform="rotate(-180 638.453 745.935)" stroke="#D0EFFF" stroke-opacity="0.76" stroke-width="0.7199"/>
<rect x="926.41" y="745.935" width="119.212" height="119.212" rx="59.606" transform="rotate(-180 926.41 745.935)" stroke="#D0EFFF" stroke-opacity="0.76" stroke-width="0.7199"/>
<rect x="1439.64" y="287.589" width="469.673" height="95.2636" rx="47.6318" transform="rotate(-180 1439.64 287.589)" stroke="#D0EFFF" stroke-opacity="0.76" stroke-width="0.7199"/>
<rect x="1254.57" y="192.342" width="383.214" height="95.2634" rx="47.6317" transform="rotate(90 1254.57 192.342)" stroke="#D0EFFF" stroke-opacity="0.76" stroke-width="0.7199"/>
<rect x="1255.23" y="0.35995" width="287.23" height="95.2634" rx="47.6317" transform="rotate(90 1255.23 0.35995)" stroke="#D0EFFF" stroke-opacity="0.76" stroke-width="0.7199"/>
<rect x="1439.63" y="575.56" width="469.673" height="95.2635" rx="47.6318" transform="rotate(-180 1439.63 575.56)" stroke="#D0EFFF" stroke-opacity="0.76" stroke-width="0.7199"/>
<rect x="1415.42" y="443.583" width="119.212" height="119.212" rx="59.606" transform="rotate(-180 1415.42 443.583)" stroke="#D0EFFF" stroke-opacity="0.76" stroke-width="0.7199"/>
<rect x="1117.73" y="443.574" width="119.212" height="119.212" rx="59.606" transform="rotate(-180 1117.73 443.574)" stroke="#D0EFFF" stroke-opacity="0.76" stroke-width="0.7199"/>
<rect x="1123.25" y="155.617" width="119.212" height="119.212" rx="59.606" transform="rotate(-180 1123.25 155.617)" stroke="#D0EFFF" stroke-opacity="0.76" stroke-width="0.7199"/>
<rect x="1411.21" y="155.617" width="119.212" height="119.212" rx="59.606" transform="rotate(-180 1411.21 155.617)" stroke="#D0EFFF" stroke-opacity="0.76" stroke-width="0.7199"/>
<rect x="1439.64" y="877.908" width="469.673" height="95.2636" rx="47.6318" transform="rotate(-180 1439.64 877.908)" stroke="#D0EFFF" stroke-opacity="0.76" stroke-width="0.7199"/>
<rect x="1254.57" y="782.661" width="383.214" height="95.2634" rx="47.6317" transform="rotate(90 1254.57 782.661)" stroke="#D0EFFF" stroke-opacity="0.76" stroke-width="0.7199"/>
<rect x="1255.23" y="590.678" width="287.23" height="95.2634" rx="47.6317" transform="rotate(90 1255.23 590.678)" stroke="#D0EFFF" stroke-opacity="0.76" stroke-width="0.7199"/>
<rect x="1415.42" y="1033.9" width="119.212" height="119.212" rx="59.606" transform="rotate(-180 1415.42 1033.9)" stroke="#D0EFFF" stroke-opacity="0.76" stroke-width="0.7199"/>
<rect x="1117.73" y="1033.89" width="119.212" height="119.212" rx="59.606" transform="rotate(-180 1117.73 1033.89)" stroke="#D0EFFF" stroke-opacity="0.76" stroke-width="0.7199"/>
<rect x="1123.25" y="745.935" width="119.212" height="119.212" rx="59.606" transform="rotate(-180 1123.25 745.935)" stroke="#D0EFFF" stroke-opacity="0.76" stroke-width="0.7199"/>
<rect x="1411.21" y="745.935" width="119.212" height="119.212" rx="59.606" transform="rotate(-180 1411.21 745.935)" stroke="#D0EFFF" stroke-opacity="0.76" stroke-width="0.7199"/>
<rect x="1924.44" y="287.589" width="469.673" height="95.2636" rx="47.6318" transform="rotate(-180 1924.44 287.589)" stroke="#D0EFFF" stroke-opacity="0.76" stroke-width="0.7199"/>
<rect x="1739.37" y="192.342" width="383.214" height="95.2634" rx="47.6317" transform="rotate(90 1739.37 192.342)" stroke="#D0EFFF" stroke-opacity="0.76" stroke-width="0.7199"/>
<rect x="1740.03" y="0.35995" width="287.23" height="95.2634" rx="47.6317" transform="rotate(90 1740.03 0.35995)" stroke="#D0EFFF" stroke-opacity="0.76" stroke-width="0.7199"/>
<rect x="1924.43" y="575.56" width="469.673" height="95.2635" rx="47.6318" transform="rotate(-180 1924.43 575.56)" stroke="#D0EFFF" stroke-opacity="0.76" stroke-width="0.7199"/>
<rect x="1900.22" y="443.583" width="119.212" height="119.212" rx="59.606" transform="rotate(-180 1900.22 443.583)" stroke="#D0EFFF" stroke-opacity="0.76" stroke-width="0.7199"/>
<rect x="1602.53" y="443.574" width="119.212" height="119.212" rx="59.606" transform="rotate(-180 1602.53 443.574)" stroke="#D0EFFF" stroke-opacity="0.76" stroke-width="0.7199"/>
<rect x="1608.05" y="155.617" width="119.212" height="119.212" rx="59.606" transform="rotate(-180 1608.05 155.617)" stroke="#D0EFFF" stroke-opacity="0.76" stroke-width="0.7199"/>
<rect x="1896.01" y="155.617" width="119.212" height="119.212" rx="59.606" transform="rotate(-180 1896.01 155.617)" stroke="#D0EFFF" stroke-opacity="0.76" stroke-width="0.7199"/>
<rect x="1924.44" y="877.908" width="469.673" height="95.2636" rx="47.6318" transform="rotate(-180 1924.44 877.908)" stroke="#D0EFFF" stroke-opacity="0.76" stroke-width="0.7199"/>
<rect x="1739.37" y="782.661" width="383.214" height="95.2634" rx="47.6317" transform="rotate(90 1739.37 782.661)" stroke="#D0EFFF" stroke-opacity="0.76" stroke-width="0.7199"/>
<rect x="1740.03" y="590.678" width="287.23" height="95.2634" rx="47.6317" transform="rotate(90 1740.03 590.678)" stroke="#D0EFFF" stroke-opacity="0.76" stroke-width="0.7199"/>
<rect x="1900.22" y="1033.9" width="119.212" height="119.212" rx="59.606" transform="rotate(-180 1900.22 1033.9)" stroke="#D0EFFF" stroke-opacity="0.76" stroke-width="0.7199"/>
<rect x="1602.53" y="1033.89" width="119.212" height="119.212" rx="59.606" transform="rotate(-180 1602.53 1033.89)" stroke="#D0EFFF" stroke-opacity="0.76" stroke-width="0.7199"/>
<rect x="1608.05" y="745.935" width="119.212" height="119.212" rx="59.606" transform="rotate(-180 1608.05 745.935)" stroke="#D0EFFF" stroke-opacity="0.76" stroke-width="0.7199"/>
<rect x="1896.01" y="745.935" width="119.212" height="119.212" rx="59.606" transform="rotate(-180 1896.01 745.935)" stroke="#D0EFFF" stroke-opacity="0.76" stroke-width="0.7199"/>
</g>
<defs>
<clipPath id="clip0_926_2240">
<rect width="1924.8" height="1024" fill="white"/>
</clipPath>
</defs>
</svg>
