<svg width="205" height="41" viewBox="0 0 205 41" fill="none" xmlns="http://www.w3.org/2000/svg">
<path d="M43.6602 34.9529C43.6602 33.159 45.0315 31.8911 46.722 31.8911C47.9726 31.8911 49.0507 32.5207 49.5078 33.6937H48.3262C48.0071 33.0555 47.4378 32.7536 46.722 32.7536C45.5317 32.7536 44.6693 33.5988 44.6693 34.9529C44.6693 36.307 45.5317 37.1609 46.722 37.1609C47.4378 37.1609 48.0071 36.859 48.3262 36.2208H49.5078C49.0507 37.3938 47.9726 38.0147 46.722 38.0147C45.0315 38.0147 43.6602 36.7555 43.6602 34.9529Z" fill="#187BCD"/>
<path d="M59.1283 34.9529C59.1283 36.7555 57.7742 38.0234 56.0664 38.0234C54.376 38.0234 53.0046 36.7555 53.0046 34.9529C53.0046 33.159 54.376 31.8911 56.0664 31.8911C57.7742 31.8911 59.1283 33.159 59.1283 34.9529ZM54.0137 34.9529C54.0137 36.307 54.8762 37.1695 56.0664 37.1695C57.2567 37.1695 58.1192 36.307 58.1192 34.9529C58.1192 33.5988 57.2567 32.7536 56.0664 32.7536C54.8762 32.7536 54.0137 33.5988 54.0137 34.9529Z" fill="#187BCD"/>
<path d="M66.711 31.9601H67.6943V37.963H66.711L63.7527 33.4867V37.963H62.7695V31.9601H63.7527L66.711 36.4278V31.9601Z" fill="#187BCD"/>
<path d="M71.6591 37.963V31.9687H75.1867V32.7708H72.6424V34.5389H74.6261V35.341H72.6424V37.963H71.6591Z" fill="#187BCD"/>
<path d="M82.0835 31.9601V32.7622H79.7548V34.5217H81.8248V35.3238H79.7548V37.1609H82.0835V37.963H78.7716V31.9601H82.0835Z" fill="#187BCD"/>
<path d="M89.1508 33.7627C89.1508 33.159 88.8058 32.7708 88.0382 32.7708H86.9515V34.7804H88.0382C88.8058 34.7804 89.1508 34.3578 89.1508 33.7627ZM85.9683 31.9687H88.0382C89.4613 31.9687 90.1599 32.7881 90.1599 33.7627C90.1599 34.4699 89.7804 35.2289 88.7713 35.479L90.2548 37.963H89.0818L87.7019 35.5653H86.9515V37.963H85.9683V31.9687Z" fill="#187BCD"/>
<path d="M97.4034 31.9601V32.7622H95.0747V34.5217H97.1446V35.3238H95.0747V37.1609H97.4034V37.963H94.0914V31.9601H97.4034Z" fill="#187BCD"/>
<path d="M105.23 31.9601H106.213V37.963H105.23L102.271 33.4867V37.963H101.288V31.9601H102.271L105.23 36.4278V31.9601Z" fill="#187BCD"/>
<path d="M109.85 34.9529C109.85 33.159 111.221 31.8911 112.912 31.8911C114.162 31.8911 115.241 32.5207 115.698 33.6937H114.516C114.197 33.0555 113.628 32.7536 112.912 32.7536C111.722 32.7536 110.859 33.5988 110.859 34.9529C110.859 36.307 111.722 37.1609 112.912 37.1609C113.628 37.1609 114.197 36.859 114.516 36.2208H115.698C115.241 37.3938 114.162 38.0147 112.912 38.0147C111.221 38.0147 109.85 36.7555 109.85 34.9529Z" fill="#187BCD"/>
<path d="M122.834 31.9601V32.7622H120.505V34.5217H122.575V35.3238H120.505V37.1609H122.834V37.963H119.522V31.9601H122.834Z" fill="#187BCD"/>
<rect x="32.6719" y="20.3037" width="32.6708" height="6.66645" rx="3.33323" transform="rotate(-180 32.6719 20.3037)" fill="#187BCD"/>
<rect x="19.8164" y="13.6382" width="26.6658" height="6.66645" rx="3.33323" transform="rotate(90 19.8164 13.6382)" fill="#187BCD"/>
<rect x="19.8633" y="0.304199" width="19.9994" height="6.66645" rx="3.33323" transform="rotate(90 19.8633 0.304199)" fill="#187BCD"/>
<rect x="32.6719" y="40.3042" width="32.6708" height="6.66645" rx="3.33323" transform="rotate(-180 32.6719 40.3042)" fill="#187BCD"/>
<rect x="30.9922" y="31.1382" width="8.32979" height="8.32979" rx="4.16489" transform="rotate(-180 30.9922 31.1382)" fill="#187BCD"/>
<rect x="10.3164" y="31.1377" width="8.32979" height="8.32979" rx="4.16489" transform="rotate(-180 10.3164 31.1377)" fill="#187BCD"/>
<rect x="10.6992" y="11.1382" width="8.32979" height="8.32979" rx="4.16489" transform="rotate(-180 10.6992 11.1382)" fill="#187BCD"/>
<rect x="30.6992" y="11.1382" width="8.32979" height="8.32979" rx="4.16489" transform="rotate(-180 30.6992 11.1382)" fill="#187BCD"/>
<path d="M43.3438 5.625H57.9131V9.18757H47.8103V13.7604H56.5306V17.323H47.8103V24.2354H43.3438V5.625Z" fill="#187BCD"/>
<path d="M64.0834 5.625V24.2354H59.8296V5.625H64.0834Z" fill="#187BCD"/>
<path d="M72.0659 24.5545C68.5565 24.5545 66.1372 22.2415 66.1372 18.0408V10.9423H70.391V17.6686C70.391 19.636 71.4279 20.9121 73.156 20.9121C75.0436 20.9121 76.1602 19.3967 76.1602 17.4559V10.9423H80.4141V24.2354H76.1602V22.7466C75.2297 23.8101 73.9004 24.5545 72.0659 24.5545Z" fill="#187BCD"/>
<path d="M83.5541 14.2656H81.7463V10.9423H83.5541V7.53922H87.808V10.9423H90.8654V14.2656H87.808V19.4765C87.808 20.6463 88.1004 21.2578 89.0841 21.2578C89.5892 21.2578 90.1741 21.1514 90.7059 20.9653L91.5035 23.9696C90.4666 24.395 89.1639 24.5279 88.127 24.5279C84.5113 24.5279 83.5541 22.4807 83.5541 19.5031V14.2656Z" fill="#187BCD"/>
<path d="M93.8138 14.2656H92.0059V10.9423H93.8138V7.53922H98.0676V10.9423H101.125V14.2656H98.0676V19.4765C98.0676 20.6463 98.36 21.2578 99.3437 21.2578C99.8489 21.2578 100.434 21.1514 100.966 20.9653L101.763 23.9696C100.726 24.395 99.4235 24.5279 98.3866 24.5279C94.7709 24.5279 93.8138 22.4807 93.8138 19.5031V14.2656Z" fill="#187BCD"/>
<path d="M102.345 17.5889C102.345 13.7072 104.951 10.6232 109.47 10.6232C114.229 10.6232 116.649 14.106 116.436 18.3333H106.652C106.892 20.1943 108.221 21.3375 109.896 21.3375C111.278 21.3375 112.395 20.859 113.246 19.636L115.798 21.4173C114.867 22.9859 112.714 24.5545 109.55 24.5545C105.27 24.5545 102.345 21.4705 102.345 17.5889ZM106.785 15.9671H112.608C112.501 14.6644 111.331 13.6541 109.816 13.6541C108.301 13.6541 107.184 14.5048 106.785 15.9671Z" fill="#187BCD"/>
<path d="M118.118 24.2354V10.9423H122.372V12.564C123.382 11.3942 124.818 10.6764 126.652 10.6764C127.396 10.6764 128.167 10.7828 129.178 11.155L127.981 14.7707C127.476 14.5314 126.838 14.3719 126.2 14.3719C124.445 14.3719 122.372 15.4354 122.372 18.413V24.2354H118.118Z" fill="#187BCD"/>
<path d="M130.591 5.625H140.401C145.107 5.625 147.18 7.83167 147.18 10.4371C147.18 12.245 146.25 13.7072 144.708 14.4251C146.436 14.9036 147.845 16.4191 147.845 18.7321C147.845 21.9224 145.585 24.2354 140.959 24.2354H130.591V5.625ZM140.72 16.3925H135.057V20.6197H140.667C142.422 20.6197 143.379 19.7955 143.379 18.4662C143.379 17.0837 142.422 16.3925 140.72 16.3925ZM140.188 9.24074H135.057V13.0958H140.188C142.049 13.0958 142.767 12.245 142.767 11.1284C142.767 10.0117 141.916 9.24074 140.188 9.24074Z" fill="#187BCD"/>
<path d="M157.152 18.9217L161.028 10.9423H165.574L157.553 27.4764L153.006 27.448L154.901 23.5343L148.344 10.9423H153.072L157.152 18.9217Z" fill="#187BCD"/>
<path d="M168.37 14.2656H166.562V10.9423H168.37V7.53922H172.623V10.9423H175.681V14.2656H172.623V19.4765C172.623 20.6463 172.916 21.2578 173.9 21.2578C174.405 21.2578 174.99 21.1514 175.521 20.9653L176.319 23.9696C175.282 24.395 173.979 24.5279 172.942 24.5279C169.327 24.5279 168.37 22.4807 168.37 19.5031V14.2656Z" fill="#187BCD"/>
<path d="M177.433 17.5889C177.433 13.7072 180.038 10.6232 184.558 10.6232C189.317 10.6232 191.736 14.106 191.524 18.3333H181.74C181.979 20.1943 183.308 21.3375 184.983 21.3375C186.366 21.3375 187.482 20.859 188.333 19.636L190.885 21.4173C189.955 22.9859 187.801 24.5545 184.638 24.5545C180.357 24.5545 177.433 21.4705 177.433 17.5889ZM181.873 15.9671H187.695C187.589 14.6644 186.419 13.6541 184.904 13.6541C183.388 13.6541 182.272 14.5048 181.873 15.9671Z" fill="#187BCD"/>
<path d="M192.514 22.9859L194.136 20.407C194.88 21.0185 196.396 21.497 198.23 21.497C199.161 21.497 199.958 21.0717 199.958 20.4602C199.958 18.5726 192.753 18.9448 192.753 14.6644C192.753 12.1387 195.013 10.6232 198.523 10.6232C201.553 10.6232 203.069 11.5803 203.627 11.8994L202.192 14.6112C201.341 14.0529 200.065 13.6541 198.682 13.6541C197.991 13.6541 196.927 13.8136 196.927 14.5846C196.927 16.3127 204.212 16.1532 204.212 20.4336C204.212 23.0125 201.793 24.5545 198.204 24.5545C194.668 24.5545 193.152 23.4379 192.514 22.9859Z" fill="#187BCD"/>
</svg>
