<svg width="205" height="40" viewBox="0 0 205 40" fill="none" xmlns="http://www.w3.org/2000/svg">
<path d="M43.6602 34.6489C43.6602 32.855 45.0315 31.5871 46.722 31.5871C47.9726 31.5871 49.0507 32.2167 49.5078 33.3897H48.3262C48.0071 32.7515 47.4378 32.4496 46.722 32.4496C45.5317 32.4496 44.6693 33.2948 44.6693 34.6489C44.6693 36.003 45.5317 36.8569 46.722 36.8569C47.4378 36.8569 48.0071 36.555 48.3262 35.9168H49.5078C49.0507 37.0898 47.9726 37.7107 46.722 37.7107C45.0315 37.7107 43.6602 36.4515 43.6602 34.6489Z" fill="#0D0D0D"/>
<path d="M59.1283 34.6489C59.1283 36.4515 57.7742 37.7194 56.0664 37.7194C54.376 37.7194 53.0046 36.4515 53.0046 34.6489C53.0046 32.855 54.376 31.5871 56.0664 31.5871C57.7742 31.5871 59.1283 32.855 59.1283 34.6489ZM54.0137 34.6489C54.0137 36.003 54.8762 36.8655 56.0664 36.8655C57.2567 36.8655 58.1191 36.003 58.1191 34.6489C58.1191 33.2948 57.2567 32.4496 56.0664 32.4496C54.8762 32.4496 54.0137 33.2948 54.0137 34.6489Z" fill="#0D0D0D"/>
<path d="M66.711 31.6561H67.6943V37.659H66.711L63.7527 33.1827V37.659H62.7695V31.6561H63.7527L66.711 36.1238V31.6561Z" fill="#0D0D0D"/>
<path d="M71.6591 37.659V31.6647H75.1867V32.4668H72.6424V34.2349H74.6261V35.037H72.6424V37.659H71.6591Z" fill="#0D0D0D"/>
<path d="M82.0835 31.6561V32.4582H79.7548V34.2177H81.8248V35.0198H79.7548V36.8569H82.0835V37.659H78.7716V31.6561H82.0835Z" fill="#0D0D0D"/>
<path d="M89.1508 33.4587C89.1508 32.855 88.8058 32.4668 88.0382 32.4668H86.9515V34.4764H88.0382C88.8058 34.4764 89.1508 34.0538 89.1508 33.4587ZM85.9683 31.6647H88.0382C89.4613 31.6647 90.1599 32.4841 90.1599 33.4587C90.1599 34.1659 89.7804 34.9249 88.7713 35.175L90.2548 37.659H89.0818L87.7018 35.2613H86.9515V37.659H85.9683V31.6647Z" fill="#0D0D0D"/>
<path d="M97.4034 31.6561V32.4582H95.0747V34.2177H97.1446V35.0198H95.0747V36.8569H97.4034V37.659H94.0914V31.6561H97.4034Z" fill="#0D0D0D"/>
<path d="M105.23 31.6561H106.213V37.659H105.23L102.271 33.1827V37.659H101.288V31.6561H102.271L105.23 36.1238V31.6561Z" fill="#0D0D0D"/>
<path d="M109.85 34.6489C109.85 32.855 111.221 31.5871 112.912 31.5871C114.162 31.5871 115.241 32.2167 115.698 33.3897H114.516C114.197 32.7515 113.628 32.4496 112.912 32.4496C111.722 32.4496 110.859 33.2948 110.859 34.6489C110.859 36.003 111.722 36.8569 112.912 36.8569C113.628 36.8569 114.197 36.555 114.516 35.9168H115.698C115.241 37.0898 114.162 37.7107 112.912 37.7107C111.221 37.7107 109.85 36.4515 109.85 34.6489Z" fill="#0D0D0D"/>
<path d="M122.834 31.6561V32.4582H120.505V34.2177H122.575V35.0198H120.505V36.8569H122.834V37.659H119.522V31.6561H122.834Z" fill="#0D0D0D"/>
<rect x="32.6719" y="19.9994" width="32.6708" height="6.66645" rx="3.33323" transform="rotate(-180 32.6719 19.9994)" fill="#03254C"/>
<rect x="19.8164" y="13.3342" width="26.6658" height="6.66645" rx="3.33323" transform="rotate(90 19.8164 13.3342)" fill="#2A9DF4"/>
<rect x="19.8633" y="-1.52588e-05" width="19.9994" height="6.66645" rx="3.33323" transform="rotate(90 19.8633 -1.52588e-05)" fill="#2A9DF4"/>
<rect x="32.6719" y="40" width="32.6708" height="6.66646" rx="3.33323" transform="rotate(-180 32.6719 40)" fill="#1167B1"/>
<rect x="30.9883" y="30.8341" width="8.32979" height="8.32979" rx="4.16489" transform="rotate(-180 30.9883 30.8341)" fill="#03254C"/>
<rect x="10.3125" y="30.8336" width="8.32979" height="8.32979" rx="4.16489" transform="rotate(-180 10.3125 30.8336)" fill="#2A9DF4"/>
<rect x="10.6953" y="10.8338" width="8.32979" height="8.32979" rx="4.16489" transform="rotate(-180 10.6953 10.8338)" fill="#1167B1"/>
<rect x="30.6953" y="10.8338" width="8.32979" height="8.32979" rx="4.16489" transform="rotate(-180 30.6953 10.8338)" fill="#187BCD"/>
<path d="M43.3398 5.32056H57.9092V8.88313H47.8063V13.456H56.5267V17.0185H47.8063V23.931H43.3398V5.32056Z" fill="#187BCD"/>
<path d="M64.0795 5.32056V23.931H59.8257V5.32056H64.0795Z" fill="#187BCD"/>
<path d="M72.062 24.25C68.5526 24.25 66.1333 21.937 66.1333 17.7364V10.6378H70.3871V17.3642C70.3871 19.3316 71.424 20.6077 73.1521 20.6077C75.0397 20.6077 76.1563 19.0923 76.1563 17.1515V10.6378H80.4101V23.931H76.1563V22.4422C75.2258 23.5056 73.8965 24.25 72.062 24.25Z" fill="#187BCD"/>
<path d="M83.5502 13.9611H81.7424V10.6378H83.5502V7.23477H87.804V10.6378H90.8615V13.9611H87.804V19.172C87.804 20.3418 88.0965 20.9533 89.0802 20.9533C89.5853 20.9533 90.1702 20.847 90.702 20.6609L91.4995 23.6651C90.4627 24.0905 89.1599 24.2234 88.1231 24.2234C84.5073 24.2234 83.5502 22.1763 83.5502 19.1986V13.9611Z" fill="#187BCD"/>
<path d="M93.8099 13.9611H92.002V10.6378H93.8099V7.23477H98.0637V10.6378H101.121V13.9611H98.0637V19.172C98.0637 20.3418 98.3561 20.9533 99.3398 20.9533C99.845 20.9533 100.43 20.847 100.962 20.6609L101.759 23.6651C100.722 24.0905 99.4196 24.2234 98.3827 24.2234C94.767 24.2234 93.8099 22.1763 93.8099 19.1986V13.9611Z" fill="#187BCD"/>
<path d="M102.341 17.2844C102.341 13.4028 104.947 10.3188 109.467 10.3188C114.225 10.3188 116.645 13.8016 116.432 18.0288H106.648C106.888 19.8899 108.217 21.0331 109.892 21.0331C111.274 21.0331 112.391 20.5545 113.242 19.3316L115.794 21.1128C114.864 22.6814 112.71 24.25 109.546 24.25C105.266 24.25 102.341 21.166 102.341 17.2844ZM106.781 15.6626H112.604C112.497 14.3599 111.328 13.3496 109.812 13.3496C108.297 13.3496 107.18 14.2004 106.781 15.6626Z" fill="#187BCD"/>
<path d="M118.114 23.931V10.6378H122.368V12.2596C123.378 11.0898 124.814 10.372 126.648 10.372C127.393 10.372 128.164 10.4783 129.174 10.8505L127.977 14.4663C127.472 14.227 126.834 14.0675 126.196 14.0675C124.441 14.0675 122.368 15.1309 122.368 18.1086V23.931H118.114Z" fill="#187BCD"/>
<path d="M130.587 5.32056H140.397C145.103 5.32056 147.177 7.52722 147.177 10.1327C147.177 11.9406 146.246 13.4028 144.704 14.1206C146.432 14.5992 147.841 16.1146 147.841 18.4276C147.841 21.618 145.581 23.931 140.955 23.931H130.587V5.32056ZM140.716 16.088H135.053V20.3153H140.663C142.418 20.3153 143.375 19.4911 143.375 18.1618C143.375 16.7793 142.418 16.088 140.716 16.088ZM140.184 8.9363H135.053V12.7913H140.184C142.045 12.7913 142.763 11.9406 142.763 10.8239C142.763 9.70731 141.912 8.9363 140.184 8.9363Z" fill="#187BCD"/>
<path d="M157.148 18.6173L161.024 10.6378H165.57L157.549 27.1719L153.002 27.1436L154.897 23.2299L148.34 10.6378H153.068L157.148 18.6173Z" fill="#187BCD"/>
<path d="M168.366 13.9611H166.558V10.6378H168.366V7.23477H172.619V10.6378H175.677V13.9611H172.619V19.172C172.619 20.3418 172.912 20.9533 173.896 20.9533C174.401 20.9533 174.986 20.847 175.517 20.6609L176.315 23.6651C175.278 24.0905 173.975 24.2234 172.938 24.2234C169.323 24.2234 168.366 22.1763 168.366 19.1986V13.9611Z" fill="#187BCD"/>
<path d="M177.429 17.2844C177.429 13.4028 180.034 10.3188 184.554 10.3188C189.313 10.3188 191.732 13.8016 191.52 18.0288H181.736C181.975 19.8899 183.304 21.0331 184.979 21.0331C186.362 21.0331 187.479 20.5545 188.329 19.3316L190.882 21.1128C189.951 22.6814 187.798 24.25 184.634 24.25C180.353 24.25 177.429 21.166 177.429 17.2844ZM181.869 15.6626H187.691C187.585 14.3599 186.415 13.3496 184.9 13.3496C183.384 13.3496 182.268 14.2004 181.869 15.6626Z" fill="#187BCD"/>
<path d="M192.51 22.6814L194.132 20.1026C194.876 20.714 196.392 21.1926 198.226 21.1926C199.157 21.1926 199.954 20.7672 199.954 20.1557C199.954 18.2681 192.749 18.6403 192.749 14.3599C192.749 11.8342 195.009 10.3188 198.519 10.3188C201.55 10.3188 203.065 11.2759 203.623 11.5949L202.188 14.3067C201.337 13.7484 200.061 13.3496 198.678 13.3496C197.987 13.3496 196.924 13.5091 196.924 14.2802C196.924 16.0083 204.208 15.8487 204.208 20.1291C204.208 22.708 201.789 24.25 198.2 24.25C194.664 24.25 193.148 23.1334 192.51 22.6814Z" fill="#187BCD"/>
</svg>
